<?xml version="1.0" encoding="UTF-8" standalone="no"?>
<svg
   xmlns:dc="http://purl.org/dc/elements/1.1/"
   xmlns:cc="http://creativecommons.org/ns#"
   xmlns:rdf="http://www.w3.org/1999/02/22-rdf-syntax-ns#"
   xmlns:svg="http://www.w3.org/2000/svg"
   xmlns="http://www.w3.org/2000/svg"
   xmlns:sodipodi="http://sodipodi.sourceforge.net/DTD/sodipodi-0.dtd"
   xmlns:inkscape="http://www.inkscape.org/namespaces/inkscape"
   version="1.1"
   id="svg2"
   xml:space="preserve"
   width="219.513"
   height="122.67599"
   viewBox="0 0 219.513 122.676"
   sodipodi:docname="pgstats.svg"
   inkscape:version="1.0.1 (3bc2e813f5, 2020-09-07)"><metadata
     id="metadata8"><rdf:RDF><cc:Work
         rdf:about=""><dc:format>image/svg+xml</dc:format><dc:type
           rdf:resource="http://purl.org/dc/dcmitype/StillImage" /><dc:title></dc:title></cc:Work></rdf:RDF></metadata><defs
     id="defs6"><clipPath
       clipPathUnits="userSpaceOnUse"
       id="clipPath20"><path
         d="M 0,612 H 792 V 0 H 0 Z"
         id="path18" /></clipPath><clipPath
       clipPathUnits="userSpaceOnUse"
       id="clipPath56"><path
         d="M 0,0 H 792 V 612 H 0 Z"
         id="path54" /></clipPath><clipPath
       clipPathUnits="userSpaceOnUse"
       id="clipPath88"><path
         d="M 0,0 H 792 V 612 H 0 Z"
         id="path86" /></clipPath><clipPath
       clipPathUnits="userSpaceOnUse"
       id="clipPath112"><path
         d="M 0,0 H 792 V 612 H 0 Z"
         id="path110" /></clipPath><clipPath
       clipPathUnits="userSpaceOnUse"
       id="clipPath144"><path
         d="M 0,0 H 792 V 612 H 0 Z"
         id="path142" /></clipPath><clipPath
       clipPathUnits="userSpaceOnUse"
       id="clipPath168"><path
         d="M 0,0 H 792 V 612 H 0 Z"
         id="path166" /></clipPath><clipPath
       clipPathUnits="userSpaceOnUse"
       id="clipPath200"><path
         d="M 0,0 H 792 V 612 H 0 Z"
         id="path198" /></clipPath><clipPath
       clipPathUnits="userSpaceOnUse"
       id="clipPath352"><path
         d="M 0,0 H 792 V 612 H 0 Z"
         id="path350" /></clipPath><clipPath
       clipPathUnits="userSpaceOnUse"
       id="clipPath384"><path
         d="M 0,0 H 792 V 612 H 0 Z"
         id="path382" /></clipPath><clipPath
       clipPathUnits="userSpaceOnUse"
       id="clipPath408"><path
         d="M 0,0 H 792 V 612 H 0 Z"
         id="path406" /></clipPath><clipPath
       clipPathUnits="userSpaceOnUse"
       id="clipPath440"><path
         d="M 0,0 H 792 V 612 H 0 Z"
         id="path438" /></clipPath><clipPath
       clipPathUnits="userSpaceOnUse"
       id="clipPath460"><path
         d="M 0,0 H 792 V 612 H 0 Z"
         id="path458" /></clipPath><clipPath
       clipPathUnits="userSpaceOnUse"
       id="clipPath468"><path
         d="m 431.249,376.998 h 22.414 v -99.071 h -22.414 z"
         id="path466" /></clipPath><clipPath
       clipPathUnits="userSpaceOnUse"
       id="clipPath484"><path
         d="m 525.572,336.53 h 22.414 v -99.071 h -22.414 z"
         id="path482" /></clipPath><clipPath
       clipPathUnits="userSpaceOnUse"
       id="clipPath556"><path
         d="M 0,0 H 792 V 612 H 0 Z"
         id="path554" /></clipPath><clipPath
       clipPathUnits="userSpaceOnUse"
       id="clipPath564"><path
         d="M 330.057,170.145 H 475.366 V 82.9373 H 330.057 Z"
         id="path562" /></clipPath></defs><sodipodi:namedview
     pagecolor="#ffffff"
     bordercolor="#666666"
     borderopacity="1"
     objecttolerance="10"
     gridtolerance="10"
     guidetolerance="10"
     inkscape:pageopacity="0"
     inkscape:pageshadow="2"
     inkscape:window-width="1920"
     inkscape:window-height="1026"
     id="namedview4"
     showgrid="false"
     fit-margin-top="14"
     fit-margin-left="14"
     fit-margin-right="14"
     fit-margin-bottom="14"
     inkscape:zoom="1.0490196"
     inkscape:cx="-35.576931"
     inkscape:cy="169.34014"
     inkscape:window-x="0"
     inkscape:window-y="27"
     inkscape:window-maximized="1"
     inkscape:current-layer="g10" /><g
     id="g10"
     inkscape:groupmode="layer"
     inkscape:label="Panda_Guidelines_complete"
     transform="matrix(1.3333333,0,0,-1.3333333,-719.18131,691.68785)"><g
       id="g390"
       transform="matrix(0.99999828,0,0,1,564.97897,508.2659)"><path
         d="M 0,0 -15.093,-71.007 H 113.448 L 128.542,0 Z M -11.967,-68.476 2.05,-2.532 h 123.366 l -14.017,-65.944 z"
         style="fill:#000000;fill-opacity:1;fill-rule:nonzero;stroke:none"
         id="path392" /></g><g
       id="g394"
       transform="matrix(0.99999828,0,0,1,674.32789,442.3216)"><path
         d="M 0,0 12.941,60.881 H -105.25 L -118.19,0 Z"
         style="fill:#000000;fill-opacity:1;fill-rule:nonzero;stroke:none"
         id="path396" /></g><g
       id="g398"
       transform="matrix(0.99999828,0,0,1,567.02857,505.7342)"><path
         d="M 0,0 -14.017,-65.944 H 109.349 L 123.366,0 Z M -10.891,-63.413 2.05,-2.531 H 120.24 L 107.3,-63.413 Z"
         style="fill:#2da8f7;fill-opacity:1;fill-rule:nonzero;stroke:none"
         id="path400" /></g><g
       id="g402"
       transform="matrix(0.99999828,0,0,1,9.4240917e-4,-17.737497)"><g
         id="g404"
         clip-path="url(#clipPath408)"><g
           id="g410"
           transform="translate(577.6584,487.1782)"><path
             d="m 0,0 h -1.872 l -3.567,-16.782 h -4.166 l 8.545,40.205 h 6.039 c 2.355,0 5.118,-1.206 4.027,-6.338 L 6.722,6.339 C 5.631,1.208 2.355,0 0,0 M 4.865,17.206 C 5.16,18.594 4.793,19.138 4.008,19.138 H 2.196 L -1.025,3.985 h 1.812 c 0.785,0 1.396,0.604 1.679,1.932 z"
             style="fill:#2da8f7;fill-opacity:1;fill-rule:nonzero;stroke:none"
             id="path412" /></g><g
           id="g414"
           transform="translate(592.7996,470.396)"><path
             d="m 0,0 -0.413,1.751 c -0.985,-1.51 -2.528,-2.234 -4.159,-2.234 -2.717,0 -4.791,2.173 -3.791,6.882 l 5.826,27.408 c 0.86,4.045 4.12,6.882 7.381,6.882 3.261,0 5.013,-2.837 4.153,-6.882 L 7.381,26.2 H 3.637 l 1.732,8.151 c 0.231,1.086 -0.314,1.931 -1.462,1.931 -1.086,0 -1.93,-0.845 -2.161,-1.931 L -4.362,5.614 c -0.27,-1.267 0.154,-2.113 1.301,-2.113 1.208,0 1.992,0.846 2.261,2.113 l 2.169,10.203 h -1.57 L 0.607,19.62 H 6.344 L 2.174,0 Z"
             style="fill:#2da8f7;fill-opacity:1;fill-rule:nonzero;stroke:none"
             id="path416" /></g><g
           id="g418"
           transform="translate(605.0767,469.9131)"><path
             d="m 0,0 c -3.744,0 -5.414,2.656 -4.464,7.124 l 1.09,5.131 H 0.431 L -0.762,6.641 c -0.347,-1.63 0.073,-2.778 1.402,-2.778 1.449,0 2.331,1.027 2.704,2.778 0.859,4.045 0.444,7.485 -0.682,12.134 -1.012,4.044 -2.287,10.262 -1.402,14.428 0.988,4.649 3.566,7.969 7.853,7.969 3.322,0 4.896,-2.536 3.921,-7.124 L 11.841,28.434 H 8.097 l 1.257,5.917 c 0.386,1.81 -0.039,2.655 -1.126,2.655 -1.208,0 -2.22,-0.784 -2.579,-2.474 C 4.583,29.52 5.291,27.166 6.47,21.914 7.639,16.903 8.519,11.953 7.62,7.727 6.286,1.449 2.415,0 0,0"
             style="fill:#d1d4d4;fill-opacity:1;fill-rule:nonzero;stroke:none"
             id="path420" /></g></g></g><g
       id="g422"
       transform="matrix(0.99999828,0,0,1,629.81216,488.5179)"><path
         d="m 0,0 -7.622,-35.859 h -4.166 L -4.166,0 H -7.91 l 0.924,4.346 H 4.487 L 3.563,0 Z"
         style="fill:#d1d4d4;fill-opacity:1;fill-rule:nonzero;stroke:none"
         id="path424" /></g><g
       id="g426"
       transform="matrix(0.99999828,0,0,1,635.02255,452.6585)"><path
         d="M 0,0 1.219,7.727 H -2.162 L -4.468,0 H -8.212 L 4.379,40.206 H 8.908 L 4.348,0 Z M 4.557,30.245 -0.876,12.074 h 2.718 z"
         style="fill:#d1d4d4;fill-opacity:1;fill-rule:nonzero;stroke:none"
         id="path428" /></g><g
       id="g430"
       transform="matrix(0.99999828,0,0,1,656.02642,488.5179)"><path
         d="m 0,0 -7.622,-35.859 h -4.167 L -4.167,0 H -7.91 l 0.923,4.346 H 4.487 L 3.563,0 Z"
         style="fill:#d1d4d4;fill-opacity:1;fill-rule:nonzero;stroke:none"
         id="path432" /></g><g
       id="g434"
       transform="matrix(0.99999828,0,0,1,9.4240917e-4,-17.737497)"><g
         id="g436"
         clip-path="url(#clipPath440)"><g
           id="g442"
           transform="translate(660.9106,469.9131)"><path
             d="m 0,0 c -3.744,0 -5.414,2.656 -4.464,7.124 l 1.09,5.131 H 0.431 L -0.762,6.641 c -0.347,-1.63 0.073,-2.778 1.402,-2.778 1.449,0 2.331,1.027 2.704,2.778 0.859,4.045 0.443,7.485 -0.682,12.134 -1.012,4.044 -2.287,10.262 -1.402,14.428 0.988,4.649 3.566,7.969 7.853,7.969 3.322,0 4.896,-2.536 3.921,-7.124 L 11.841,28.434 H 8.097 l 1.257,5.917 c 0.386,1.81 -0.039,2.655 -1.126,2.655 -1.208,0 -2.22,-0.784 -2.579,-2.474 C 4.583,29.52 5.291,27.166 6.47,21.914 7.639,16.903 8.519,11.953 7.62,7.727 6.286,1.449 2.415,0 0,0"
             style="fill:#d1d4d4;fill-opacity:1;fill-rule:nonzero;stroke:none"
             id="path444" /></g></g></g></g></svg>
