<?xml version="1.0"?><svg width="849.636" height="637.621" xmlns="http://www.w3.org/2000/svg">
 <g>
  <title>Musical Notes</title>
  <g id="FreeVector.com_Buttons"/>
  <g id="FreeVector_Graphics">
   <g id="svg_367"/>
   <g id="svg_117">
    <g id="svg_306">
     <path stroke="#c66207" stroke-width="10" fill="#efba4b" d="m407.311401,94.860077c-1.531921,-2.175964 -4.626617,-1.763947 -6.137146,0.221825c-6.602112,7.447357 -11.133911,16.436592 -17.249908,24.23243c-26.482635,34.014099 -61.943848,60.665588 -101.376465,77.873276c-15.961792,6.950623 -28.574036,20.176056 -36.581055,35.461197c-8.208069,15.496536 -12.602142,32.725159 -14.883789,50.038574c-2.567383,20.366272 -2.44043,41.038788 -0.084473,61.404724c1.066345,8.598572 2.450562,17.197388 4.922485,25.52124c0.771118,2.102173 1.446838,4.700806 3.760254,5.566711c2.915466,-0.337891 3.739288,-3.623169 4.574341,-5.936462c2.682678,-8.429626 4.373352,-17.165466 6.87677,-25.658569c4.309387,-15.084229 9.929596,-30.253296 20.144226,-42.422394c5.112701,-6.137238 11.556091,-11.218414 18.929291,-14.334442c22.627167,-9.876648 48.728668,-8.355774 70.626556,-20.239563c3.834747,-2.36615 8.091888,-4.531464 10.785156,-8.165222c0.316986,0.179565 0.644592,0.33783 0.972168,0.517395c-0.739594,1.943878 -0.887085,4.01416 -1.108856,6.063416c-7.320984,59.89444 -14.64151,119.788513 -21.950806,179.682861c-0.803345,6.316833 -1.922577,12.76062 -0.444214,19.056213c2.324219,11.081116 9.940582,20.197327 18.549683,27.105713c18.137207,14.714844 40.985931,22.331116 63.886871,25.288818c26.144897,3.464783 53.619537,2.091492 78.137482,-8.345154c11.344849,-4.890991 22.531738,-11.503357 29.746216,-21.781799c7.098755,-9.929565 9.063232,-23.471558 4.404846,-34.848328c-4.84845,-12.200684 -15.305969,-21.052856 -26.049255,-27.971863c-23.883423,-15.073975 -52.636719,-20.12323 -80.524292,-20.324036c-22.911987,0.01062 -46.552551,4.711365 -65.820465,17.736023c8.820709,-71.33429 17.47168,-142.67923 26.207947,-214.024475c3.908386,-32.556305 8.144165,-65.049103 11.841125,-97.616043c0.200592,-4.690163 0.81369,-10.087868 -2.154694,-14.102066z" id="svg_307"/>
    </g>
    <g id="svg_308">
     <path stroke="#c66207" stroke-width="3" fill="#efba4b" d="m561.690552,132.802689c-0.424133,-0.602448 -1.280945,-0.488373 -1.699158,0.061432c-1.827942,2.06189 -3.082642,4.55069 -4.77594,6.709076c-7.332031,9.417297 -17.149963,16.796112 -28.067566,21.560303c-4.41925,1.924377 -7.911133,5.586029 -10.127991,9.817932c-2.272522,4.290436 -3.489014,9.060425 -4.120789,13.853882c-0.710754,5.638702 -0.675598,11.362183 -0.023376,17.000793c0.295288,2.380615 0.678528,4.761322 1.362915,7.065918c0.21344,0.582001 0.400513,1.301453 1.041016,1.541199c0.80719,-0.093536 1.035339,-1.003113 1.266479,-1.643585c0.742737,-2.333862 1.210815,-4.752502 1.903931,-7.103943c1.193115,-4.17627 2.749146,-8.376068 5.577209,-11.745209c1.415527,-1.699219 3.199524,-3.106018 5.240906,-3.968689c6.264648,-2.734528 13.491272,-2.313416 19.553955,-5.603638c1.061768,-0.65509 2.240417,-1.254608 2.986023,-2.260681c0.08783,0.049744 0.178528,0.093567 0.269226,0.14325c-0.204773,0.538208 -0.245667,1.111389 -0.307068,1.678772c-2.026917,16.582611 -4.05365,33.165131 -6.077332,49.747742c-0.222412,1.748901 -0.532288,3.532959 -0.122986,5.27597c0.643494,3.067963 2.752136,5.591919 5.135742,7.504608c5.021484,4.074005 11.347534,6.182678 17.687988,7.001556c7.238525,0.95929 14.845337,0.579071 21.633484,-2.310486c3.140991,-1.354126 6.23822,-3.184875 8.235657,-6.030579c1.965332,-2.749146 2.509277,-6.498444 1.219543,-9.648254c-1.342346,-3.37793 -4.237671,-5.828796 -7.212097,-7.744415c-6.612549,-4.173431 -14.573303,-5.571381 -22.294312,-5.626984c-6.343506,0.00293 -12.888733,1.304413 -18.223328,4.910461c2.442078,-19.749908 4.83728,-39.502777 7.255981,-59.255707c1.082153,-9.013672 2.254883,-18.009766 3.278442,-27.026367c0.055542,-1.298553 0.225281,-2.792969 -0.596558,-3.904358z" id="svg_309"/>
    </g>
    <g id="svg_118">
     <path stroke="#c66207" stroke-width="3" id="svg_119" fill="#efba4b" d="m481.383606,245.231995c-0.288818,-0.410324 -0.872437,-0.332642 -1.157227,0.041824c-1.245117,1.404388 -2.099609,3.099533 -3.25293,4.569641c-4.993958,6.41423 -11.68103,11.439987 -19.117126,14.684921c-3.01001,1.31073 -5.388367,3.804718 -6.898315,6.687103c-1.547791,2.922272 -2.376343,6.171143 -2.806702,9.436005c-0.48407,3.840576 -0.460144,7.738922 -0.01593,11.579437c0.201172,1.62146 0.462158,3.242981 0.928345,4.812653c0.145386,0.396423 0.272766,0.886444 0.709045,1.049744c0.549744,-0.063721 0.705139,-0.683228 0.86261,-1.119446c0.505859,-1.58963 0.824707,-3.237 1.296753,-4.838593c0.812683,-2.844513 1.872498,-5.705017 3.798706,-7.999786c0.964111,-1.157349 2.17926,-2.11554 3.569641,-2.703125c4.266907,-1.862488 9.189026,-1.575684 13.31842,-3.816681c0.723083,-0.446198 1.52594,-0.854523 2.033752,-1.539764c0.059814,0.033875 0.121582,0.063721 0.18335,0.097565c-0.139404,0.366577 -0.167236,0.756989 -0.209106,1.143433c-1.380554,11.294586 -2.760986,22.589111 -4.139282,33.883698c-0.151489,1.191193 -0.362549,2.406311 -0.083801,3.593506c0.438293,2.08963 1.874512,3.808716 3.497986,5.111481c3.420166,2.774841 7.728882,4.21109 12.047485,4.768829c4.930176,0.653381 10.111328,0.394409 14.734741,-1.5737c2.139404,-0.922302 4.248901,-2.16925 5.609375,-4.107483c1.338623,-1.872467 1.709106,-4.426178 0.830688,-6.571533c-0.914307,-2.300751 -2.886353,-3.970062 -4.912231,-5.274811c-4.503906,-2.84256 -9.926025,-3.794708 -15.184937,-3.832581c-4.320557,0.002014 -8.778564,0.888428 -12.411987,3.344543c1.663208,-13.451843 3.294678,-26.905731 4.942017,-40.35965c0.737061,-6.139313 1.535889,-12.266647 2.233032,-18.407944c0.037842,-0.884445 0.153442,-1.902313 -0.406372,-2.659286z"/>
    </g>
   </g>
  </g>
 </g>
</svg>